# xmcd
#
# Track frame offsets:
#	183
#	24198
#	45503
#	66718
#	84988
#	114880
#	130738
#	140900
#	156093
#	175003
#	194895
#	210715
#	223563
#	239035
#
# Disc length: 3426 seconds
#
# Revision: 0
# Processed by: cddbd v1.5.2PL0 Copyright (c) Steve Scherf et al.
# Submitted via: EasyCDDAExtractor 12.0.1.1
#
DISCID=ce0d600e
DTITLE=Santana - The Very Best Of [CD2]
DYEAR=1990
DGENRE=Slow Rock
TTITLE0=Black Magic Woman
TTITLE1=Flor D'Luna (Moonflower)
TTITLE2=Stormy
TTITLE3=She's Not There
TTITLE4=Soul Sacrifice
TTITLE5=Everybody's Everything
TTITLE6=Carnaval
TTITLE7=Say It Again
TTITLE8=Well Alright
TTITLE9=Hold On
TTITLE10=The Sensitive Kind
TTITLE11=Se A Cabo
TTITLE12=Wham!
TTITLE13=Nowhere To Run
EXTD=
EXTT0=
EXTT1=
EXTT2=
EXTT3=
EXTT4=
EXTT5=
EXTT6=
EXTT7=
EXTT8=
EXTT9=
EXTT10=
EXTT11=
EXTT12=
EXTT13=
PLAYORDER=
